<svg xmlns="http://www.w3.org/2000/svg" viewBox="0 0 32 32">
  <rect width="32" height="32" rx="6" fill="#4a7c59"/>
  <g transform="translate(16,16)">
    <!-- Stylized oak leaf -->
    <path d="M0,-11 C3,-9 5,-6 4,-3 C6,-4 8,-2 7,1 C9,0 10,2 9,4 C7,3 5,5 3,4 C4,6 2,8 0,7 C-2,8 -4,6 -3,4 C-5,5 -7,3 -9,4 C-10,2 -9,0 -7,1 C-8,-2 -6,-4 -4,-3 C-5,-6 -3,-9 0,-11Z" fill="#c4d4a0" opacity="0.9"/>
    <line x1="0" y1="-8" x2="0" y2="10" stroke="#2d5a3d" stroke-width="1.2" stroke-linecap="round"/>
    <line x1="0" y1="-4" x2="-4" y2="-1" stroke="#2d5a3d" stroke-width="0.8" stroke-linecap="round"/>
    <line x1="0" y1="-1" x2="4" y2="2" stroke="#2d5a3d" stroke-width="0.8" stroke-linecap="round"/>
    <line x1="0" y1="3" x2="-3" y2="5" stroke="#2d5a3d" stroke-width="0.8" stroke-linecap="round"/>
  </g>
</svg>
